<svg width="400" height="400" viewBox="0 0 400 400" fill="none" xmlns="http://www.w3.org/2000/svg">
<path d="M338.726 6.92188H352.941V13.8438H366.667V20.2715H375V28.6777H381.862V42.5215H389.216V57.3545H400V342.646H389.216V356.489H381.862V371.323H375V378.739H366.667V385.661H352.941V392.584H338.726V400H57.3525V392.584H42.6475V385.661H28.9219V378.739H21.5684V371.323H14.7061V356.489H6.37305V342.646H0V57.3545H6.37305V42.5215H14.7061V28.6777H21.5684V20.2715H28.9219V13.8438H42.6475V6.92188H57.3525V0H338.726V6.92188Z" fill="black"/>
<path d="M328.625 271.437H314.281V257.187H300.031V242.844H285.687V214.344H271.437V242.844H257.187V257.187H242.844V271.437H214.344V285.687H242.844V300.031H257.187V314.281H271.437V328.625H285.687V342.875H328.625V328.625H342.875V285.687H328.625V271.437ZM328.625 314.281H314.281V300.031H300.031V285.687H285.687V271.437H300.031V285.687H314.281V300.031H328.625V314.281Z" fill="white"/>
<path d="M300.031 142.906H285.688V214.344H300.031V142.906Z" fill="white"/>
<path d="M285.687 114.312H271.438V142.906H285.687V114.312Z" fill="white"/>
<path d="M271.438 100.062H257.188V114.312H271.438V100.062Z" fill="white"/>
<path d="M257.188 85.7188H242.844V100.063H257.188V85.7188Z" fill="white"/>
<path d="M228.594 228.594H214.344V242.844H228.594V228.594Z" fill="white"/>
<path d="M242.844 71.4688H214.344V85.7188H242.844V71.4688Z" fill="white"/>
<path d="M214.344 242.844H142.906V257.188H214.344V242.844Z" fill="white"/>
<path d="M214.344 171.406H200V200H214.344V171.406Z" fill="white"/>
<path d="M214.344 285.688H142.906V300.031H214.344V285.688Z" fill="white"/>
<path d="M200 214.344H157.156V228.594H200V214.344Z" fill="white"/>
<path d="M214.344 57.125H142.906V71.4688H214.344V57.125Z" fill="white"/>
<path d="M157.156 171.406H142.906V200H157.156V171.406Z" fill="white"/>
<path d="M142.906 271.438H114.312V285.687H142.906V271.438Z" fill="white"/>
<path d="M142.906 228.594H128.562V242.844H142.906V228.594Z" fill="white"/>
<path d="M142.906 71.4688H114.312V85.7188H142.906V71.4688Z" fill="white"/>
<path d="M128.562 157.156H142.906V142.906H214.344V157.156H228.594V228.594H242.844V128.562H228.594V114.312H214.344V100.062H142.906V114.312H128.562V128.562H114.312V228.594H128.562V157.156Z" fill="white"/>
<path d="M114.313 257.188H99.9688V271.438H114.313V257.188Z" fill="white"/>
<path d="M114.313 85.7188H99.9688V100.063H114.313V85.7188Z" fill="white"/>
<path d="M99.9688 242.844H85.7188V257.188H99.9688V242.844Z" fill="white"/>
<path d="M99.9688 100.062H85.7188V114.312H99.9688V100.062Z" fill="white"/>
<path d="M85.7188 214.344H71.4688V242.844H85.7188V214.344Z" fill="white"/>
<path d="M85.7188 114.312H71.4688V142.906H85.7188V114.312Z" fill="white"/>
<path d="M71.4688 142.906H57.125V214.344H71.4688V142.906Z" fill="white"/>
</svg>
