<svg width="400" height="400" viewBox="0 0 400 400" fill="none" xmlns="http://www.w3.org/2000/svg">
<mask id="path-1-inside-1_304_505" fill="white">
<path d="M338.726 6.92188H352.941V13.8447H366.667V20.2715H375V28.6777H381.862V42.5215H389.216V57.3545H400V342.646H389.216V356.489H381.862V371.322H375V378.739H366.667V385.661H352.941V392.583H338.726V400H57.3525V392.583H42.6475V385.661H28.9219V378.739H21.5684V371.322H14.7061V356.489H6.37305V342.646H0V57.3545H6.37305V42.5215H14.7061V28.6777H21.5684V20.2715H28.9219V13.8447H42.6475V6.92188H57.3525V0H338.726V6.92188Z"/>
</mask>
<path d="M338.726 6.92188H352.941V13.8447H366.667V20.2715H375V28.6777H381.862V42.5215H389.216V57.3545H400V342.646H389.216V356.489H381.862V371.322H375V378.739H366.667V385.661H352.941V392.583H338.726V400H57.3525V392.583H42.6475V385.661H28.9219V378.739H21.5684V371.322H14.7061V356.489H6.37305V342.646H0V57.3545H6.37305V42.5215H14.7061V28.6777H21.5684V20.2715H28.9219V13.8447H42.6475V6.92188H57.3525V0H338.726V6.92188Z" fill="black"/>
<path d="M338.726 6.92188H337.726V7.92188H338.726V6.92188ZM352.941 6.92188H353.941V5.92188H352.941V6.92188ZM352.941 13.8447H351.941V14.8447H352.941V13.8447ZM366.667 13.8447H367.667V12.8447H366.667V13.8447ZM366.667 20.2715H365.667V21.2715H366.667V20.2715ZM375 20.2715H376V19.2715H375V20.2715ZM375 28.6777H374V29.6777H375V28.6777ZM381.862 28.6777H382.862V27.6777H381.862V28.6777ZM381.862 42.5215H380.862V43.5215H381.862V42.5215ZM389.216 42.5215H390.216V41.5215H389.216V42.5215ZM389.216 57.3545H388.216V58.3545H389.216V57.3545ZM400 57.3545H401V56.3545H400V57.3545ZM400 342.646V343.646H401V342.646H400ZM389.216 342.646V341.646H388.216V342.646H389.216ZM389.216 356.489V357.489H390.216V356.489H389.216ZM381.862 356.489V355.489H380.862V356.489H381.862ZM381.862 371.322V372.322H382.862V371.322H381.862ZM375 371.322V370.322H374V371.322H375ZM375 378.739V379.739H376V378.739H375ZM366.667 378.739V377.739H365.667V378.739H366.667ZM366.667 385.661V386.661H367.667V385.661H366.667ZM352.941 385.661V384.661H351.941V385.661H352.941ZM352.941 392.583V393.583H353.941V392.583H352.941ZM338.726 392.583V391.583H337.726V392.583H338.726ZM338.726 400V401H339.726V400H338.726ZM57.3525 400H56.3525V401H57.3525V400ZM57.3525 392.583H58.3525V391.583H57.3525V392.583ZM42.6475 392.583H41.6475V393.583H42.6475V392.583ZM42.6475 385.661H43.6475V384.661H42.6475V385.661ZM28.9219 385.661H27.9219V386.661H28.9219V385.661ZM28.9219 378.739H29.9219V377.739H28.9219V378.739ZM21.5684 378.739H20.5684V379.739H21.5684V378.739ZM21.5684 371.322H22.5684V370.322H21.5684V371.322ZM14.7061 371.322H13.7061V372.322H14.7061V371.322ZM14.7061 356.489H15.7061V355.489H14.7061V356.489ZM6.37305 356.489H5.37305V357.489H6.37305V356.489ZM6.37305 342.646H7.37305V341.646H6.37305V342.646ZM0 342.646H-1V343.646H0V342.646ZM0 57.3545V56.3545H-1V57.3545H0ZM6.37305 57.3545V58.3545H7.37305V57.3545H6.37305ZM6.37305 42.5215V41.5215H5.37305V42.5215H6.37305ZM14.7061 42.5215V43.5215H15.7061V42.5215H14.7061ZM14.7061 28.6777V27.6777H13.7061V28.6777H14.7061ZM21.5684 28.6777V29.6777H22.5684V28.6777H21.5684ZM21.5684 20.2715V19.2715H20.5684V20.2715H21.5684ZM28.9219 20.2715V21.2715H29.9219V20.2715H28.9219ZM28.9219 13.8447V12.8447H27.9219V13.8447H28.9219ZM42.6475 13.8447V14.8447H43.6475V13.8447H42.6475ZM42.6475 6.92188V5.92188H41.6475V6.92188H42.6475ZM57.3525 6.92188V7.92188H58.3525V6.92188H57.3525ZM57.3525 0V-1H56.3525V0H57.3525ZM338.726 0H339.726V-1H338.726V0ZM338.726 6.92188V7.92188H352.941V6.92188V5.92188H338.726V6.92188ZM352.941 6.92188H351.941V13.8447H352.941H353.941V6.92188H352.941ZM352.941 13.8447V14.8447H366.667V13.8447V12.8447H352.941V13.8447ZM366.667 13.8447H365.667V20.2715H366.667H367.667V13.8447H366.667ZM366.667 20.2715V21.2715H375V20.2715V19.2715H366.667V20.2715ZM375 20.2715H374V28.6777H375H376V20.2715H375ZM375 28.6777V29.6777H381.862V28.6777V27.6777H375V28.6777ZM381.862 28.6777H380.862V42.5215H381.862H382.862V28.6777H381.862ZM381.862 42.5215V43.5215H389.216V42.5215V41.5215H381.862V42.5215ZM389.216 42.5215H388.216V57.3545H389.216H390.216V42.5215H389.216ZM389.216 57.3545V58.3545H400V57.3545V56.3545H389.216V57.3545ZM400 57.3545H399V342.646H400H401V57.3545H400ZM400 342.646V341.646H389.216V342.646V343.646H400V342.646ZM389.216 342.646H388.216V356.489H389.216H390.216V342.646H389.216ZM389.216 356.489V355.489H381.862V356.489V357.489H389.216V356.489ZM381.862 356.489H380.862V371.322H381.862H382.862V356.489H381.862ZM381.862 371.322V370.322H375V371.322V372.322H381.862V371.322ZM375 371.322H374V378.739H375H376V371.322H375ZM375 378.739V377.739H366.667V378.739V379.739H375V378.739ZM366.667 378.739H365.667V385.661H366.667H367.667V378.739H366.667ZM366.667 385.661V384.661H352.941V385.661V386.661H366.667V385.661ZM352.941 385.661H351.941V392.583H352.941H353.941V385.661H352.941ZM352.941 392.583V391.583H338.726V392.583V393.583H352.941V392.583ZM338.726 392.583H337.726V400H338.726H339.726V392.583H338.726ZM338.726 400V399H57.3525V400V401H338.726V400ZM57.3525 400H58.3525V392.583H57.3525H56.3525V400H57.3525ZM57.3525 392.583V391.583H42.6475V392.583V393.583H57.3525V392.583ZM42.6475 392.583H43.6475V385.661H42.6475H41.6475V392.583H42.6475ZM42.6475 385.661V384.661H28.9219V385.661V386.661H42.6475V385.661ZM28.9219 385.661H29.9219V378.739H28.9219H27.9219V385.661H28.9219ZM28.9219 378.739V377.739H21.5684V378.739V379.739H28.9219V378.739ZM21.5684 378.739H22.5684V371.322H21.5684H20.5684V378.739H21.5684ZM21.5684 371.322V370.322H14.7061V371.322V372.322H21.5684V371.322ZM14.7061 371.322H15.7061V356.489H14.7061H13.7061V371.322H14.7061ZM14.7061 356.489V355.489H6.37305V356.489V357.489H14.7061V356.489ZM6.37305 356.489H7.37305V342.646H6.37305H5.37305V356.489H6.37305ZM6.37305 342.646V341.646H0V342.646V343.646H6.37305V342.646ZM0 342.646H1V57.3545H0H-1V342.646H0ZM0 57.3545V58.3545H6.37305V57.3545V56.3545H0V57.3545ZM6.37305 57.3545H7.37305V42.5215H6.37305H5.37305V57.3545H6.37305ZM6.37305 42.5215V43.5215H14.7061V42.5215V41.5215H6.37305V42.5215ZM14.7061 42.5215H15.7061V28.6777H14.7061H13.7061V42.5215H14.7061ZM14.7061 28.6777V29.6777H21.5684V28.6777V27.6777H14.7061V28.6777ZM21.5684 28.6777H22.5684V20.2715H21.5684H20.5684V28.6777H21.5684ZM21.5684 20.2715V21.2715H28.9219V20.2715V19.2715H21.5684V20.2715ZM28.9219 20.2715H29.9219V13.8447H28.9219H27.9219V20.2715H28.9219ZM28.9219 13.8447V14.8447H42.6475V13.8447V12.8447H28.9219V13.8447ZM42.6475 13.8447H43.6475V6.92188H42.6475H41.6475V13.8447H42.6475ZM42.6475 6.92188V7.92188H57.3525V6.92188V5.92188H42.6475V6.92188ZM57.3525 6.92188H58.3525V0H57.3525H56.3525V6.92188H57.3525ZM57.3525 0V1H338.726V0V-1H57.3525V0ZM338.726 0H337.726V6.92188H338.726H339.726V0H338.726Z" fill="black" mask="url(#path-1-inside-1_304_505)"/>
<path d="M314.281 307.156H328.625V292.906H342.875V107.188H328.625V121.437H314.281V135.688H271.438V150.031H128.562V164.281H257.188V235.719H271.438V221.469H314.281V207.125H328.625V221.469H314.281V235.719H271.438V249.969H257.188V321.406H128.562V335.75H271.438V321.406H314.281V307.156Z" fill="white"/>
<path d="M328.625 92.8438H300.031V107.187H328.625V92.8438Z" fill="white"/>
<path d="M300.031 78.5938H257.188V92.8438H300.031V78.5938Z" fill="white"/>
<path d="M257.188 235.719H128.562V249.969H257.188V235.719Z" fill="white"/>
<path d="M185.75 278.562H142.906V292.906H185.75V278.562Z" fill="white"/>
<path d="M185.75 192.875H142.906V207.125H185.75V192.875Z" fill="white"/>
<path d="M257.188 64.25H142.906V78.5938H257.188V64.25Z" fill="white"/>
<path d="M128.562 307.156H85.7188V321.406H128.562V307.156Z" fill="white"/>
<path d="M128.562 221.469H85.7188V235.719H128.562V221.469Z" fill="white"/>
<path d="M128.562 135.688H85.7188V150.031H128.562V135.688Z" fill="white"/>
<path d="M142.906 78.5938H99.9688V92.8438H142.906V78.5938Z" fill="white"/>
<path d="M114.313 249.969H85.7188V278.562H114.313V249.969Z" fill="white"/>
<path d="M114.313 164.281H85.7188V192.875H114.313V164.281Z" fill="white"/>
<path d="M99.9688 92.8438H71.4688V107.187H99.9688V92.8438Z" fill="white"/>
<path d="M85.7188 292.906H71.4688V307.156H85.7188V292.906Z" fill="white"/>
<path d="M71.4687 221.469H85.7187V207.125H71.4687V135.688H85.7187V121.437H71.4687V107.188H57.125V292.906H71.4687V221.469Z" fill="white"/>
</svg>
