<svg width="400" height="400" viewBox="0 0 400 400" fill="none" xmlns="http://www.w3.org/2000/svg">
<mask id="path-1-inside-1_304_289" fill="white">
<path d="M338.726 6.92188H352.941V13.8447H366.667V20.2715H375V28.6777H381.862V42.5215H389.216V57.3545H400V342.646H389.216V356.489H381.862V371.322H375V378.739H366.667V385.661H352.941V392.583H338.726V400H57.3525V392.583H42.6475V385.661H28.9219V378.739H21.5684V371.322H14.7061V356.489H6.37305V342.646H0V57.3545H6.37305V42.5215H14.7061V28.6777H21.5684V20.2715H28.9219V13.8447H42.6475V6.92188H57.3525V0H338.726V6.92188Z"/>
</mask>
<path d="M338.726 6.92188H352.941V13.8447H366.667V20.2715H375V28.6777H381.862V42.5215H389.216V57.3545H400V342.646H389.216V356.489H381.862V371.322H375V378.739H366.667V385.661H352.941V392.583H338.726V400H57.3525V392.583H42.6475V385.661H28.9219V378.739H21.5684V371.322H14.7061V356.489H6.37305V342.646H0V57.3545H6.37305V42.5215H14.7061V28.6777H21.5684V20.2715H28.9219V13.8447H42.6475V6.92188H57.3525V0H338.726V6.92188Z" fill="black"/>
<path d="M338.726 6.92188H337.726V7.92188H338.726V6.92188ZM352.941 6.92188H353.941V5.92188H352.941V6.92188ZM352.941 13.8447H351.941V14.8447H352.941V13.8447ZM366.667 13.8447H367.667V12.8447H366.667V13.8447ZM366.667 20.2715H365.667V21.2715H366.667V20.2715ZM375 20.2715H376V19.2715H375V20.2715ZM375 28.6777H374V29.6777H375V28.6777ZM381.862 28.6777H382.862V27.6777H381.862V28.6777ZM381.862 42.5215H380.862V43.5215H381.862V42.5215ZM389.216 42.5215H390.216V41.5215H389.216V42.5215ZM389.216 57.3545H388.216V58.3545H389.216V57.3545ZM400 57.3545H401V56.3545H400V57.3545ZM400 342.646V343.646H401V342.646H400ZM389.216 342.646V341.646H388.216V342.646H389.216ZM389.216 356.489V357.489H390.216V356.489H389.216ZM381.862 356.489V355.489H380.862V356.489H381.862ZM381.862 371.322V372.322H382.862V371.322H381.862ZM375 371.322V370.322H374V371.322H375ZM375 378.739V379.739H376V378.739H375ZM366.667 378.739V377.739H365.667V378.739H366.667ZM366.667 385.661V386.661H367.667V385.661H366.667ZM352.941 385.661V384.661H351.941V385.661H352.941ZM352.941 392.583V393.583H353.941V392.583H352.941ZM338.726 392.583V391.583H337.726V392.583H338.726ZM338.726 400V401H339.726V400H338.726ZM57.3525 400H56.3525V401H57.3525V400ZM57.3525 392.583H58.3525V391.583H57.3525V392.583ZM42.6475 392.583H41.6475V393.583H42.6475V392.583ZM42.6475 385.661H43.6475V384.661H42.6475V385.661ZM28.9219 385.661H27.9219V386.661H28.9219V385.661ZM28.9219 378.739H29.9219V377.739H28.9219V378.739ZM21.5684 378.739H20.5684V379.739H21.5684V378.739ZM21.5684 371.322H22.5684V370.322H21.5684V371.322ZM14.7061 371.322H13.7061V372.322H14.7061V371.322ZM14.7061 356.489H15.7061V355.489H14.7061V356.489ZM6.37305 356.489H5.37305V357.489H6.37305V356.489ZM6.37305 342.646H7.37305V341.646H6.37305V342.646ZM0 342.646H-1V343.646H0V342.646ZM0 57.3545V56.3545H-1V57.3545H0ZM6.37305 57.3545V58.3545H7.37305V57.3545H6.37305ZM6.37305 42.5215V41.5215H5.37305V42.5215H6.37305ZM14.7061 42.5215V43.5215H15.7061V42.5215H14.7061ZM14.7061 28.6777V27.6777H13.7061V28.6777H14.7061ZM21.5684 28.6777V29.6777H22.5684V28.6777H21.5684ZM21.5684 20.2715V19.2715H20.5684V20.2715H21.5684ZM28.9219 20.2715V21.2715H29.9219V20.2715H28.9219ZM28.9219 13.8447V12.8447H27.9219V13.8447H28.9219ZM42.6475 13.8447V14.8447H43.6475V13.8447H42.6475ZM42.6475 6.92188V5.92188H41.6475V6.92188H42.6475ZM57.3525 6.92188V7.92188H58.3525V6.92188H57.3525ZM57.3525 0V-1H56.3525V0H57.3525ZM338.726 0H339.726V-1H338.726V0ZM338.726 6.92188V7.92188H352.941V6.92188V5.92188H338.726V6.92188ZM352.941 6.92188H351.941V13.8447H352.941H353.941V6.92188H352.941ZM352.941 13.8447V14.8447H366.667V13.8447V12.8447H352.941V13.8447ZM366.667 13.8447H365.667V20.2715H366.667H367.667V13.8447H366.667ZM366.667 20.2715V21.2715H375V20.2715V19.2715H366.667V20.2715ZM375 20.2715H374V28.6777H375H376V20.2715H375ZM375 28.6777V29.6777H381.862V28.6777V27.6777H375V28.6777ZM381.862 28.6777H380.862V42.5215H381.862H382.862V28.6777H381.862ZM381.862 42.5215V43.5215H389.216V42.5215V41.5215H381.862V42.5215ZM389.216 42.5215H388.216V57.3545H389.216H390.216V42.5215H389.216ZM389.216 57.3545V58.3545H400V57.3545V56.3545H389.216V57.3545ZM400 57.3545H399V342.646H400H401V57.3545H400ZM400 342.646V341.646H389.216V342.646V343.646H400V342.646ZM389.216 342.646H388.216V356.489H389.216H390.216V342.646H389.216ZM389.216 356.489V355.489H381.862V356.489V357.489H389.216V356.489ZM381.862 356.489H380.862V371.322H381.862H382.862V356.489H381.862ZM381.862 371.322V370.322H375V371.322V372.322H381.862V371.322ZM375 371.322H374V378.739H375H376V371.322H375ZM375 378.739V377.739H366.667V378.739V379.739H375V378.739ZM366.667 378.739H365.667V385.661H366.667H367.667V378.739H366.667ZM366.667 385.661V384.661H352.941V385.661V386.661H366.667V385.661ZM352.941 385.661H351.941V392.583H352.941H353.941V385.661H352.941ZM352.941 392.583V391.583H338.726V392.583V393.583H352.941V392.583ZM338.726 392.583H337.726V400H338.726H339.726V392.583H338.726ZM338.726 400V399H57.3525V400V401H338.726V400ZM57.3525 400H58.3525V392.583H57.3525H56.3525V400H57.3525ZM57.3525 392.583V391.583H42.6475V392.583V393.583H57.3525V392.583ZM42.6475 392.583H43.6475V385.661H42.6475H41.6475V392.583H42.6475ZM42.6475 385.661V384.661H28.9219V385.661V386.661H42.6475V385.661ZM28.9219 385.661H29.9219V378.739H28.9219H27.9219V385.661H28.9219ZM28.9219 378.739V377.739H21.5684V378.739V379.739H28.9219V378.739ZM21.5684 378.739H22.5684V371.322H21.5684H20.5684V378.739H21.5684ZM21.5684 371.322V370.322H14.7061V371.322V372.322H21.5684V371.322ZM14.7061 371.322H15.7061V356.489H14.7061H13.7061V371.322H14.7061ZM14.7061 356.489V355.489H6.37305V356.489V357.489H14.7061V356.489ZM6.37305 356.489H7.37305V342.646H6.37305H5.37305V356.489H6.37305ZM6.37305 342.646V341.646H0V342.646V343.646H6.37305V342.646ZM0 342.646H1V57.3545H0H-1V342.646H0ZM0 57.3545V58.3545H6.37305V57.3545V56.3545H0V57.3545ZM6.37305 57.3545H7.37305V42.5215H6.37305H5.37305V57.3545H6.37305ZM6.37305 42.5215V43.5215H14.7061V42.5215V41.5215H6.37305V42.5215ZM14.7061 42.5215H15.7061V28.6777H14.7061H13.7061V42.5215H14.7061ZM14.7061 28.6777V29.6777H21.5684V28.6777V27.6777H14.7061V28.6777ZM21.5684 28.6777H22.5684V20.2715H21.5684H20.5684V28.6777H21.5684ZM21.5684 20.2715V21.2715H28.9219V20.2715V19.2715H21.5684V20.2715ZM28.9219 20.2715H29.9219V13.8447H28.9219H27.9219V20.2715H28.9219ZM28.9219 13.8447V14.8447H42.6475V13.8447V12.8447H28.9219V13.8447ZM42.6475 13.8447H43.6475V6.92188H42.6475H41.6475V13.8447H42.6475ZM42.6475 6.92188V7.92188H57.3525V6.92188V5.92188H42.6475V6.92188ZM57.3525 6.92188H58.3525V0H57.3525H56.3525V6.92188H57.3525ZM57.3525 0V1H338.726V0V-1H57.3525V0ZM338.726 0H337.726V6.92188H338.726H339.726V0H338.726Z" fill="black" mask="url(#path-1-inside-1_304_289)"/>
<path d="M342.875 278.562H328.531V292.813H342.875V278.562Z" fill="white"/>
<path d="M342.875 221.375H328.531V235.719H342.875V221.375Z" fill="white"/>
<path d="M342.875 164.281H328.531V178.531H342.875V164.281Z" fill="white"/>
<path d="M342.875 107.094H328.531V121.437H342.875V107.094Z" fill="white"/>
<path d="M328.531 264.219H314.281V278.562H328.531V264.219Z" fill="white"/>
<path d="M328.531 235.719H314.281V249.969H328.531V235.719Z" fill="white"/>
<path d="M328.531 207.125H314.281V221.375H328.531V207.125Z" fill="white"/>
<path d="M328.531 178.531H314.281V192.781H328.531V178.531Z" fill="white"/>
<path d="M328.531 149.938H314.281V164.281H328.531V149.938Z" fill="white"/>
<path d="M328.531 121.438H314.281V135.688H328.531V121.438Z" fill="white"/>
<path d="M314.281 249.969H299.938V264.219H314.281V249.969Z" fill="white"/>
<path d="M314.281 192.781H299.938V207.125H314.281V192.781Z" fill="white"/>
<path d="M314.281 135.688H299.938V149.937H314.281V135.688Z" fill="white"/>
<path d="M128.563 350H271.438V335.656H285.687V64.25H271.438V50H128.563V64.25H114.219V335.656H128.563V350ZM200 64.25H228.5V78.5H200V64.25ZM171.406 64.25H185.656V78.5H171.406V64.25ZM128.563 78.5H157.156V92.8438H242.844V78.5H271.438V321.406H128.563V78.5Z" fill="white"/>
<path d="M257.094 235.719H242.844V249.969H257.094V235.719Z" fill="white"/>
<path d="M257.344 179H243V193.344H257.344V179Z" fill="white"/>
<path d="M242.844 164.281H228.5V178.531H242.844V164.281Z" fill="white"/>
<path d="M242.844 249.969H214.25V264.219H242.844V249.969Z" fill="white"/>
<path d="M228.5 178.531H214.25V192.781H228.5V178.531Z" fill="white"/>
<path d="M214.25 264H185.656V278.25H214.25V264Z" fill="white"/>
<path d="M185.656 178.531H171.406V192.781H185.656V178.531Z" fill="white"/>
<path d="M185.656 249.969H157.156V264.219H185.656V249.969Z" fill="white"/>
<path d="M157.25 179H143V193.344H157.25V179Z" fill="white"/>
<path d="M171.406 164.281H157.156V178.531H171.406V164.281Z" fill="white"/>
<path d="M157.156 235.719H142.812V249.969H157.156V235.719Z" fill="white"/>
<path d="M99.9688 249.969H85.7188V264.219H99.9688V249.969Z" fill="white"/>
<path d="M99.9688 192.781H85.7188V207.125H99.9688V192.781Z" fill="white"/>
<path d="M99.9688 135.688H85.7188V149.937H99.9688V135.688Z" fill="white"/>
<path d="M85.7188 264.219H71.375V278.562H85.7188V264.219Z" fill="white"/>
<path d="M85.7188 235.719H71.375V249.969H85.7188V235.719Z" fill="white"/>
<path d="M85.7188 207.125H71.375V221.375H85.7188V207.125Z" fill="white"/>
<path d="M85.7188 178.531H71.375V192.781H85.7188V178.531Z" fill="white"/>
<path d="M85.7188 149.938H71.375V164.281H85.7188V149.938Z" fill="white"/>
<path d="M85.7188 121.438H71.375V135.688H85.7188V121.438Z" fill="white"/>
<path d="M71.375 278.562H57.125V292.813H71.375V278.562Z" fill="white"/>
<path d="M71.375 221.375H57.125V235.719H71.375V221.375Z" fill="white"/>
<path d="M71.375 164.281H57.125V178.531H71.375V164.281Z" fill="white"/>
<path d="M71.375 107.094H57.125V121.437H71.375V107.094Z" fill="white"/>
</svg>
