<svg width="400" height="400" viewBox="0 0 400 400" fill="none" xmlns="http://www.w3.org/2000/svg">
<path d="M338.726 6.92188H352.941V13.8438H366.667V20.2715H375V28.6777H381.862V42.5215H389.216V57.3545H400V342.646H389.216V356.489H381.862V371.323H375V378.739H366.667V385.661H352.941V392.584H338.726V400H57.3525V392.584H42.6475V385.661H28.9219V378.739H21.5684V371.323H14.7061V356.489H6.37305V342.646H0V57.3545H6.37305V42.5215H14.7061V28.6777H21.5684V20.2715H28.9219V13.8438H42.6475V6.92188H57.3525V0H338.726V6.92188Z" fill="black"/>
<path d="M285.687 107.094H271.438V335.656H285.687V107.094Z" fill="white"/>
<path d="M271.438 335.656H128.562V350H271.438V335.656Z" fill="white"/>
<path d="M257.188 249.969H242.844V264.219H257.188V249.969Z" fill="white"/>
<path d="M257.188 221.375H242.844V235.625H257.188V221.375Z" fill="white"/>
<path d="M257.188 307.062H228.594V321.406H257.188V307.062Z" fill="white"/>
<path d="M257.188 278.562H228.594V292.813H257.188V278.562Z" fill="white"/>
<path d="M142.906 121.344V207.125H257.188V121.344H142.906ZM214.344 149.937H200V164.281H185.75V178.531H171.406V192.781H157.156V135.688H214.344V149.937Z" fill="white"/>
<path d="M228.594 235.625H214.344V221.375H185.75V235.625H171.406V249.969H185.75V264.219H214.344V249.969H228.594V235.625Z" fill="white"/>
<path d="M214.344 307.062H185.75V321.406H214.344V307.062Z" fill="white"/>
<path d="M214.344 278.562H185.75V292.813H214.344V278.562Z" fill="white"/>
<path d="M171.406 307.062H142.906V321.406H171.406V307.062Z" fill="white"/>
<path d="M171.406 278.562H142.906V292.813H171.406V278.562Z" fill="white"/>
<path d="M157.156 249.969H142.906V264.219H157.156V249.969Z" fill="white"/>
<path d="M157.156 221.375H142.906V235.625H157.156V221.375Z" fill="white"/>
<path d="M142.906 50H128.562V64.25H142.906V50Z" fill="white"/>
<path d="M128.562 107.094H271.438V92.8438H157.156V64.25H142.906V92.8438H128.562V64.25H114.312V335.656H128.562V107.094Z" fill="white"/>
</svg>
